<?xml version="1.0" encoding="UTF-8"?>
<svg width="40px" height="40px" viewBox="0 0 40 40" version="1.1" xmlns="http://www.w3.org/2000/svg" xmlns:xlink="http://www.w3.org/1999/xlink">
    <!-- Generator: Sketch 63.1 (92452) - https://sketch.com -->
    <title>Artboard</title>
    <desc>Created with Sketch.</desc>
    <defs>
        <path d="M39.744375,19.9962205 C39.744375,31.0214173 30.876875,39.9590551 19.9378125,39.9590551 C8.99875,39.9590551 0.1309375,31.0214173 0.1309375,19.9962205 C0.1309375,8.97133858 8.99875,0.0337007874 19.9378125,0.0337007874 C30.876875,0.0337007874 39.744375,8.97133858 39.744375,19.9962205" id="path-1"></path>
        <linearGradient x1="50.0003944%" y1="100%" x2="50.0003944%" y2="-0.000788873725%" id="linearGradient-3">
            <stop stop-color="#FBD56B" offset="0%"></stop>
            <stop stop-color="#DF4D63" offset="100%"></stop>
        </linearGradient>
    </defs>
    <g id="Artboard" stroke="none" stroke-width="1" fill="none" fill-rule="evenodd">
        <g id="Group-4">
            <g id="Group-3">
                <mask id="mask-2" fill="white">
                    <use xlink:href="#path-1"></use>
                </mask>
                <g id="Clip-2"></g>
                <path d="M39.744375,19.9962205 C39.744375,31.0214173 30.876875,39.9590551 19.9378125,39.9590551 C8.99875,39.9590551 0.1309375,31.0214173 0.1309375,19.9962205 C0.1309375,8.97133858 8.99875,0.0337007874 19.9378125,0.0337007874 C30.876875,0.0337007874 39.744375,8.97133858 39.744375,19.9962205" id="Fill-1" fill="url(#linearGradient-3)" mask="url(#mask-2)"></path>
            </g>
            <path d="M16.9,21.815748 C16.823125,21.8182677 9.2959375,22.056063 5.6453125,19.1508661 C5.284375,18.863937 4.7603125,18.9253543 4.4753125,19.2894488 C4.1903125,19.6532283 4.251875,20.1814173 4.6128125,20.4686614 C6.0675,21.6258268 7.98875,22.343937 9.8821875,22.7889764 C9.5484375,23.1152756 9.3403125,23.5716535 9.3403125,24.0771654 C9.3403125,25.0689764 10.1378125,25.8730709 11.121875,25.8730709 C12.1059375,25.8730709 12.90375,25.0689764 12.90375,24.0771654 C12.90375,23.7911811 12.835625,23.5222047 12.7178125,23.2822047 C14.2884375,23.4696063 15.6265625,23.5020472 16.3621875,23.5020472 C16.7,23.5020472 16.9109375,23.4954331 16.9596875,23.4935433 C17.4196875,23.4768504 17.77875,23.087874 17.7621875,22.6245669 C17.7459375,22.1612598 17.353125,21.8037795 16.9,21.815748" id="Fill-4" fill="#0A0B09"></path>
            <path d="M22.929375,21.815748 C23.0065625,21.8182677 30.5334375,22.056063 34.1840625,19.1508661 C34.545,18.863937 35.0690625,18.9253543 35.3540625,19.2894488 C35.6390625,19.6532283 35.5775,20.1814173 35.2165625,20.4686614 C33.7621875,21.6258268 31.840625,22.343937 29.9471875,22.7889764 C30.2809375,23.1152756 30.489375,23.5716535 30.489375,24.0771654 C30.489375,25.0689764 29.6915625,25.8730709 28.7075,25.8730709 C27.7234375,25.8730709 26.925625,25.0689764 26.925625,24.0771654 C26.925625,23.7911811 26.99375,23.5222047 27.111875,23.2822047 C25.5409375,23.4696063 24.203125,23.5020472 23.4671875,23.5020472 C23.1296875,23.5020472 22.91875,23.4954331 22.8696875,23.4935433 C22.41,23.4768504 22.050625,23.087874 22.0671875,22.6245669 C22.08375,22.1612598 22.47625,21.8037795 22.929375,21.815748" id="Fill-5" fill="#0A0B09"></path>
            <path d="M26.4075,30.7662992 C24.1796875,29.3064567 16.8059375,29.0280315 13.6240625,30.7285039 C13.2175,30.9458268 13.0625,31.4538583 13.278125,31.863622 C13.4278125,32.1477165 13.71625,32.3099213 14.015,32.3099213 C14.1465625,32.3099213 14.28,32.0790551 14.404375,32.0129134 C15.043125,31.6714961 15.893125,31.9467717 16.84125,31.631811 L23.1671875,31.631811 C24.2046875,31.9467717 25.04625,31.6784252 25.4996875,31.9751181 C25.8853125,32.2277165 26.40125,32.2170079 26.6521875,31.8280315 C26.9028125,31.4393701 26.7934375,31.0188976 26.4075,30.7662992" id="Fill-6" fill="#0A0B09"></path>
        </g>
    </g>
</svg>