<?xml version="1.0" encoding="UTF-8"?>
<svg width="40px" height="40px" viewBox="0 0 40 40" version="1.1" xmlns="http://www.w3.org/2000/svg" xmlns:xlink="http://www.w3.org/1999/xlink">
    <!-- Generator: Sketch 63.1 (92452) - https://sketch.com -->
    <title>Artboard</title>
    <desc>Created with Sketch.</desc>
    <g id="Artboard" stroke="none" stroke-width="1" fill="none" fill-rule="evenodd">
        <path d="M20,40 C31.0461538,40 40,31.0461538 40,20 C40,8.95384615 31.0461538,0 20,0 C8.95384615,0 0,8.95384615 0,20 C0,31.0461538 8.95384615,40 20,40 Z M20,1.53846154 C30.18,1.53846154 38.4615385,9.82 38.4615385,20 C38.4615385,25.48 36.0476923,30.3953846 32.2430769,33.7784615 C30.9123077,33.1261538 29.5384615,32.5138462 28.52,32.0753846 C28.3584615,32.0092308 26.9169231,31.4015385 26.9169231,31.4015385 C26.9169231,31.4015385 22.3015385,29.0661538 24.6092308,26.7307692 C25.5415385,25.7876923 26.0876923,24.0753846 26.4184615,22.2215385 C26.9569231,22.2076923 27.6692308,21.0323077 28.0584615,19.4584615 C28.4707692,17.7892308 28.3615385,16.3230769 27.8092308,16.1861538 C27.7553846,16.1723077 27.7015385,16.1815385 27.6461538,16.1938462 C27.7707692,14.8446154 27.7323077,13.5676923 27.3492308,13.0138462 C26.1553846,11.3061538 26.0538462,9.8 24.2446154,9.14923077 C22.4430769,8.49692308 24.6153846,6.15384615 24.6153846,6.15384615 C24.6153846,6.15384615 16.8861538,6.37076923 15.2384615,9.14615385 C14.2707692,10.7692308 13.8030769,11.3046154 12.6107692,13.0123077 C12.2261538,13.5676923 12.2169231,14.8476923 12.3815385,16.1953846 C12.3123077,16.1769231 12.2446154,16.1692308 12.1815385,16.1861538 C11.6292308,16.3230769 11.5184615,17.7892308 11.9307692,19.4584615 C12.3215385,21.0323077 13.0338462,22.2076923 13.5707692,22.2215385 C13.9030769,24.0753846 14.4476923,25.7861538 15.3815385,26.7307692 C17.6892308,29.0661538 13.0738462,31.4015385 13.0738462,31.4015385 C13.0738462,31.4015385 11.6323077,32.0092308 11.4707692,32.0753846 C10.4538462,32.5138462 9.08307692,33.1261538 7.75384615,33.7753846 C3.95076923,30.3923077 1.53846154,25.4784615 1.53846154,20 C1.53846154,9.82 9.82,1.53846154 20,1.53846154 Z" id="Shape" fill="#D1D6DC" fill-rule="nonzero"></path>
    </g>
</svg>