<?xml version="1.0" encoding="UTF-8"?>
<svg width="40px" height="40px" viewBox="0 0 40 40" version="1.1" xmlns="http://www.w3.org/2000/svg" xmlns:xlink="http://www.w3.org/1999/xlink">
    <!-- Generator: Sketch 63.1 (92452) - https://sketch.com -->
    <title>Artboard</title>
    <desc>Created with Sketch.</desc>
    <g id="Artboard" stroke="none" stroke-width="1" fill="none" fill-rule="evenodd">
        <g id="Group-2">
            <path d="M39.9253543,19.9628346 C39.9253543,30.9880315 30.9880315,39.9256693 19.9628346,39.9256693 C8.9376378,39.9256693 1.7903439e-14,30.9880315 1.7903439e-14,19.9628346 C1.7903439e-14,8.9376378 8.9376378,-1.7903439e-14 19.9628346,-1.7903439e-14 C30.9880315,-1.7903439e-14 39.9253543,8.9376378 39.9253543,19.9628346" id="Fill-22" fill="#FBD56B"></path>
            <path d="M7.73102362,16.4648819 C7.40503937,16.4648819 7.09480315,16.2737008 6.95874016,15.9546457 C6.77669291,15.5285039 6.97480315,15.0346457 7.40125984,14.8529134 L11.2815748,13.1965354 L7.23937008,10.9190551 C6.83559055,10.6913386 6.69259843,10.1795276 6.92031496,9.77574803 C7.1480315,9.37133858 7.65952756,9.22834646 8.06362205,9.45606299 L13.5883465,12.5694488 C13.8667717,12.7266142 14.032126,13.0277165 14.0144882,13.3470866 C13.9968504,13.6661417 13.799685,13.9477165 13.5058268,14.0730709 L8.06047244,16.3974803 C7.95307087,16.4434646 7.84125984,16.4648819 7.73102362,16.4648819" id="Fill-23" fill="#0A0B09"></path>
            <path d="M32.1266142,16.4648819 C32.4525984,16.4648819 32.7628346,16.2737008 32.8988976,15.9546457 C33.0809449,15.5285039 32.8828346,15.0346457 32.4566929,14.8529134 L28.576378,13.1965354 L32.6182677,10.9190551 C33.0223622,10.6913386 33.1653543,10.1795276 32.9376378,9.77574803 C32.7099213,9.37133858 32.1984252,9.22834646 31.7940157,9.45606299 L26.2696063,12.5694488 C25.9911811,12.7266142 25.8258268,13.0277165 25.8434646,13.3470866 C25.8611024,13.6661417 26.0579528,13.9477165 26.352126,14.0730709 L31.7974803,16.3974803 C31.9048819,16.4434646 32.0166929,16.4648819 32.1266142,16.4648819" id="Fill-24" fill="#0A0B09"></path>
            <path d="M6.57952756,20.3370079 C6.64125984,27.2661417 12.5401575,33.023622 19.8110236,33.023622 C27.0818898,33.023622 32.9811024,27.2661417 33.0428346,20.3370079 L6.57952756,20.3370079" id="Fill-25" fill="#0A0B09"></path>
            <path d="M31.8377953,25.7467717 C28.3524409,24.5077165 24.2314961,23.7870866 19.8110236,23.7870866 C15.3905512,23.7870866 11.2699213,24.5077165 7.78425197,25.7464567 C9.87559055,30.1492913 14.471811,33.2091339 19.8110236,33.2091339 C25.1505512,33.2091339 29.7467717,30.1496063 31.8377953,25.7467717" id="Fill-26" fill="#DE4D63"></path>
        </g>
    </g>
</svg>