<?xml version="1.0" encoding="UTF-8"?>
<svg width="40px" height="40px" viewBox="0 0 40 40" version="1.1" xmlns="http://www.w3.org/2000/svg" xmlns:xlink="http://www.w3.org/1999/xlink">
    <!-- Generator: Sketch 63.1 (92452) - https://sketch.com -->
    <title>Artboard</title>
    <desc>Created with Sketch.</desc>
    <g id="Artboard" stroke="none" stroke-width="1" fill="none" fill-rule="evenodd">
        <g id="Group-6">
            <path d="M39.9253543,19.9628346 C39.9253543,30.9880315 30.9877165,39.9253543 19.9628346,39.9253543 C8.9376378,39.9253543 -1.34275793e-14,30.9880315 -1.34275793e-14,19.9628346 C-1.34275793e-14,8.9376378 8.9376378,-8.95171951e-15 19.9628346,-8.95171951e-15 C30.9877165,-8.95171951e-15 39.9253543,8.9376378 39.9253543,19.9628346" id="Fill-30" fill="#607BAF"></path>
            <path d="M14.831811,18.3770079 C14.831811,18.0677165 14.5811024,17.8173228 14.272126,17.8173228 L9.72220472,17.8173228 C9.41322835,17.8173228 9.16251969,18.0677165 9.16251969,18.3770079 L9.16251969,29.2261417 C9.16251969,29.5351181 9.41322835,29.7858268 9.72220472,29.7858268 L14.272126,29.7858268 C14.5811024,29.7858268 14.831811,29.5351181 14.831811,29.2261417 L14.831811,18.3770079" id="Fill-32" fill="#FFFFFE"></path>
            <path d="M30.3171654,20.9303937 C30.3171654,20.2771654 30.0853543,19.7127559 29.7483465,19.4393701 C30.1877165,19.1855118 30.503622,18.2440945 30.503622,17.4201575 C30.503622,16.3820472 30.0025197,15.2976378 29.3845669,15.2976378 C29.28,15.2976378 29.0869291,15.2976378 29.0869291,15.2976378 L23.1168504,15.615748 C23.1168504,15.615748 23.8047244,14.4195276 23.9388976,13.6847244 C24.0727559,12.9502362 24.7212598,9.96661417 24.1149606,8.61480315 C23.5083465,7.26299213 21.1310236,7.41417323 21.1310236,9.49070866 C21.1310236,10.159685 21.1310236,10.4472441 21.1310236,10.560315 C21.1310236,10.5628346 21.1310236,10.5807874 21.1310236,10.6258268 C21.1310236,10.6692913 21.1310236,10.7382677 21.1310236,10.8444094 C21.1310236,11.7080315 19.4418898,13.1193701 18.728189,13.7710236 C18.3014173,14.1020472 16.0916535,17.0932283 16.0916535,18.2837795 C16.0916535,19.4740157 16.0916535,27.0289764 16.0916535,27.5187402 C16.0916535,28.0085039 17.6771654,27.896063 17.0708661,27.896063 C17.6154331,27.896063 28.4746457,27.896063 28.4746457,27.896063 L28.4771654,27.9385827 C29.031811,27.9184252 29.4774803,27.2910236 29.4774803,26.4620472 C29.4774803,25.9285039 29.2925984,25.4825197 29.0132283,25.2103937 C29.5788976,25.2091339 30.0371654,24.5685039 30.0371654,23.7640945 C30.0371654,23.2422047 29.8425197,22.7933858 29.551811,22.536063 C29.992126,22.3483465 30.3171654,21.7048819 30.3171654,20.9303937 L30.3171654,20.9303937 Z" id="Fill-33" fill="#FFFFFE"></path>
        </g>
    </g>
</svg>