<?xml version="1.0" encoding="UTF-8"?>
<svg width="40px" height="40px" viewBox="0 0 40 40" version="1.1" xmlns="http://www.w3.org/2000/svg" xmlns:xlink="http://www.w3.org/1999/xlink">
    <!-- Generator: Sketch 63.1 (92452) - https://sketch.com -->
    <title>Artboard</title>
    <desc>Created with Sketch.</desc>
    <g id="Artboard" stroke="none" stroke-width="1" fill="none" fill-rule="evenodd">
        <g id="Group-5">
            <path d="M39.9253543,19.9628346 C39.9253543,30.9880315 30.9877165,39.9256693 19.9628346,39.9256693 C8.93732283,39.9256693 -8.95171951e-15,30.9880315 -8.95171951e-15,19.9628346 C-8.95171951e-15,8.9376378 8.93732283,-1.7903439e-14 19.9628346,-1.7903439e-14 C30.9877165,-1.7903439e-14 39.9253543,8.9376378 39.9253543,19.9628346" id="Fill-27" fill="#DE4D60"></path>
            <path d="M25.7461417,11.4740157 C23.1222047,11.4740157 20.903622,12.671811 20.1489764,14.976063 C19.3946457,12.671811 17.176063,11.4740157 14.552126,11.4740157 C11.3064567,11.4740157 8.67527559,14.1051969 8.67527559,17.3508661 C8.67527559,21.3877165 10.7392126,25.839685 20.1489764,31.5612598 C29.5590551,25.839685 31.6229921,21.3877165 31.6229921,17.3508661 C31.6229921,14.1051969 28.991811,11.4740157 25.7461417,11.4740157" id="Fill-28" fill="#FFFFFE"></path>
        </g>
    </g>
</svg>