<?xml version="1.0" encoding="UTF-8"?>
<svg width="40px" height="40px" viewBox="0 0 40 40" version="1.1" xmlns="http://www.w3.org/2000/svg" xmlns:xlink="http://www.w3.org/1999/xlink">
    <!-- Generator: Sketch 63.1 (92452) - https://sketch.com -->
    <title>Artboard</title>
    <desc>Created with Sketch.</desc>
    <g id="Artboard" stroke="none" stroke-width="1" fill="none" fill-rule="evenodd">
        <g id="Group-8">
            <path d="M39.9253543,19.9625197 C39.9253543,30.9877165 30.9877165,39.9253543 19.9628346,39.9253543 C8.93732283,39.9253543 -8.95171951e-15,30.9877165 -8.95171951e-15,19.9625197 C-8.95171951e-15,8.9376378 8.93732283,-1.34275793e-14 19.9628346,-1.34275793e-14 C30.9877165,-1.34275793e-14 39.9253543,8.9376378 39.9253543,19.9625197" id="Fill-7" fill="#FBD56B"></path>
            <path d="M13.5026772,20.6274016 C13.5026772,22.1537008 12.3905512,23.3908661 11.0188976,23.3908661 C9.64724409,23.3908661 8.53543307,22.1537008 8.53543307,20.6274016 C8.53543307,19.1011024 9.64724409,17.863937 11.0188976,17.863937 C12.3905512,17.863937 13.5026772,19.1011024 13.5026772,20.6274016" id="Fill-8" fill="#0A0B09"></path>
            <path d="M7.17070866,17.8289764 C7.06425197,17.8289764 6.95590551,17.8085039 6.85133858,17.7653543 C6.42267717,17.5889764 6.21795276,17.0982677 6.39464567,16.6696063 C7.99748031,12.7766929 11.415748,12.9020472 13,13.5124409 C13.4327559,13.6790551 13.648189,14.1650394 13.4815748,14.5974803 C13.3146457,15.0299213 12.8299213,15.2462992 12.3962205,15.0790551 C12.0869291,14.9640945 9.29606299,14.0330709 7.94740157,17.3089764 C7.81385827,17.6330709 7.5007874,17.8289764 7.17070866,17.8289764" id="Fill-9" fill="#0A0B09"></path>
            <path d="M26.5155906,20.6274016 C26.5155906,22.1537008 27.6277165,23.3908661 28.9993701,23.3908661 C30.3710236,23.3908661 31.4831496,22.1537008 31.4831496,20.6274016 C31.4831496,19.1011024 30.3710236,17.863937 28.9993701,17.863937 C27.6277165,17.863937 26.5155906,19.1011024 26.5155906,20.6274016" id="Fill-10" fill="#0A0B09"></path>
            <path d="M32.8475591,17.8289764 C32.9540157,17.8289764 33.0623622,17.8085039 33.1669291,17.7653543 C33.5955906,17.5889764 33.800315,17.0982677 33.623622,16.6696063 C32.0207874,12.7766929 28.6025197,12.9020472 27.0182677,13.5124409 C26.5855118,13.6790551 26.3700787,14.1650394 26.5366929,14.5974803 C26.703622,15.0299213 27.1886614,15.2462992 27.6223622,15.0790551 C27.9313386,14.9640945 30.7222047,14.0330709 32.0708661,17.3089764 C32.2044094,17.6330709 32.5174803,17.8289764 32.8475591,17.8289764" id="Fill-11" fill="#0A0B09"></path>
            <path d="M25.1867717,31.7162205 C24.9584252,31.7162205 24.7310236,31.623937 24.5653543,31.4418898 C23.1943307,29.9351181 21.5984252,29.1319685 19.9505512,29.1190551 C18.2667717,29.0929134 16.6088189,29.9124409 15.1644094,31.4513386 C14.8466142,31.7889764 14.3152756,31.8066142 13.9773228,31.4888189 C13.6393701,31.1713386 13.6226772,30.672126 13.9398425,30.3341732 C15.6988976,28.4607874 17.7615748,27.503622 19.9092913,27.503622 C19.9272441,27.503622 19.9451969,27.503622 19.9634646,27.503622 C22.0919685,27.503622 24.1127559,28.4812598 25.8072441,30.3433071 C26.1193701,30.6862992 26.0941732,31.2015748 25.7514961,31.5137008 C25.5905512,31.6601575 25.3883465,31.7162205 25.1867717,31.7162205" id="Fill-12" fill="#0A0B09"></path>
            <path d="M34.7020472,36.3225197 L34.7014173,36.3225197 C34.8412598,35.3776378 31.5004724,28.2037795 31.5004724,28.2037795 C31.5004724,28.2037795 28.3697638,35.5965354 28.4047244,36.4359055 C28.4050394,36.439685 28.4072441,36.4620472 28.4075591,36.4658268 C28.4066142,36.4862992 28.4047244,36.5155906 28.4047244,36.536378 C28.4047244,38.2762205 29.8151181,39.6916535 31.5552756,39.6916535 C33.2948031,39.6916535 34.7055118,38.2075591 34.7055118,36.4677165 C34.7055118,36.4434646 34.7026772,36.3225197 34.7020472,36.3225197" id="Fill-13" fill="#5E7EB1"></path>
        </g>
    </g>
</svg>