<?xml version="1.0" encoding="UTF-8"?>
<svg width="36px" height="32px" viewBox="0 0 36 32" version="1.1" xmlns="http://www.w3.org/2000/svg" xmlns:xlink="http://www.w3.org/1999/xlink">
    <!-- Generator: Sketch 63.1 (92452) - https://sketch.com -->
    <title>Artboard</title>
    <desc>Created with Sketch.</desc>
    <g id="Artboard" stroke="none" stroke-width="1" fill="none" fill-rule="evenodd">
        <g id="Group" fill="#606770" fill-rule="nonzero">
            <path d="M34.4280494,22.0602469 C34.432,22.0559012 34.4355556,22.0511605 34.4391111,22.0464198 C35.3244444,20.9252346 35.385679,19.8806914 35.2813827,19.2023704 C35.1830123,18.5623704 34.9088395,18.0306173 34.6093827,17.618963 C34.8748642,16.9872593 35.0297284,16.1710617 34.6741728,15.3374815 C33.8595556,13.4257778 31.1889383,13.3112099 30.3111111,13.273284 C29.1622716,13.2239012 28.3215802,12.9572346 28.0636049,12.5601975 C27.846716,12.2271605 27.9845926,11.6764444 28.0418765,11.5282963 C28.0971852,11.3995062 28.1331358,11.2636049 28.1493333,11.1249383 C28.8355556,5.28592593 27.910716,1.68849383 25.4008889,0.431802469 C23.4026667,-0.568098765 21.1334321,0.383604938 20.3630617,1.11525926 C19.7384691,1.70785185 19.7392593,2.42804938 19.9470617,2.9037037 C19.9759012,2.9708642 20.6565926,4.61116049 19.8419753,9.82241975 C19.3489383,12.978963 14.6895802,14.1420247 12.4827654,14.5181235 C12.3606914,13.8338765 11.7661235,13.3127901 11.046321,13.3127901 L1.58893827,13.3127901 C0.781037037,13.3127901 0.126814815,13.9674074 0.126814815,14.7749136 L0.126814815,29.8054321 C0.126814815,30.6129383 0.781037037,31.2675556 1.58893827,31.2675556 L11.046321,31.2675556 C11.4864198,31.2675556 11.8767407,31.0692346 12.1441975,30.7614815 C17.651358,31.4228148 20.9572346,31.7562469 23.4081975,31.7562469 C26.1037037,31.7562469 27.769284,31.353284 30.2040494,30.5426173 C32.4282469,29.8010864 33.8137284,28.7142716 34.3217778,27.3118025 C34.5758025,26.6121481 34.5643457,25.926321 34.4327901,25.3645432 C35.1798519,23.7704691 34.9206914,22.8140247 34.4280494,22.0602469 Z M3.05145679,16.237037 L9.58459259,16.237037 L9.58459259,28.3437037 L3.05145679,28.3437037 L3.05145679,16.237037 Z M32.1438025,20.2346667 C31.1762963,21.4609383 31.1051852,22.4880988 31.9126914,23.565037 C31.929679,23.5871605 31.9478519,23.6088889 31.9648395,23.6321975 C31.9446914,23.7388642 31.8676543,24.0150123 31.571358,24.5325432 C31.3046914,24.9975309 31.3145679,25.5711605 31.5958519,26.0274568 C31.5962469,26.0282469 31.6239012,26.1740247 31.5729383,26.3150617 C31.5061728,26.4987654 31.1439012,27.1462716 29.2792099,27.7680988 C25.2689383,29.1049877 23.9383704,29.2314074 12.5084444,27.8597531 L12.5084444,17.4830617 C15.0672593,17.1164444 21.8927407,15.641284 22.7310617,10.2739753 C23.3102222,6.5682963 23.2237037,4.32079012 22.9842963,2.99101235 C23.3426173,2.89817284 23.7839012,2.8697284 24.1438025,3.07437037 C24.5811358,3.32325926 25.9437037,4.5997037 25.2649877,10.6149136 C25.0674568,11.2035556 24.7055802,12.7162469 25.5841975,14.1108148 C26.3948642,15.3971358 27.9431111,16.0983704 30.1858765,16.1943704 C31.2221235,16.2390123 31.7096296,16.4001975 31.9126914,16.4965926 C31.8605432,16.6162963 31.769284,16.7683951 31.6879012,16.8651852 C31.4157037,17.1737284 31.2971852,17.5897284 31.3418272,17.9990123 C31.3868642,18.4079012 31.6128395,18.7863704 31.9446914,19.0285432 C32.070716,19.1201975 32.358321,19.404642 32.3922963,19.6527407 C32.4187654,19.8407901 32.2718025,20.0730864 32.1438025,20.2346667 Z" id="Shape"></path>
        </g>
    </g>
</svg>