<?xml version="1.0" encoding="UTF-8"?>
<svg width="40px" height="40px" viewBox="0 0 40 40" version="1.1" xmlns="http://www.w3.org/2000/svg" xmlns:xlink="http://www.w3.org/1999/xlink">
    <!-- Generator: Sketch 63.1 (92452) - https://sketch.com -->
    <title>Artboard</title>
    <desc>Created with Sketch.</desc>
    <g id="Artboard" stroke="none" stroke-width="1" fill="none" fill-rule="evenodd">
        <g id="Group-7">
            <path d="M39.9253543,19.9625197 C39.9253543,30.9877165 30.9880315,39.9253543 19.9628346,39.9253543 C8.9376378,39.9253543 -1.34275793e-14,30.9877165 -1.34275793e-14,19.9625197 C-1.34275793e-14,8.9376378 8.9376378,-1.34275793e-14 19.9628346,-1.34275793e-14 C30.9880315,-1.34275793e-14 39.9253543,8.9376378 39.9253543,19.9625197" id="Fill-15" fill="#FBD56B"></path>
            <path d="M25.839685,28.4516535 C25.839685,32.7788976 23.2500787,36.2875591 20.056063,36.2875591 C16.8617323,36.2875591 14.2724409,32.7788976 14.2724409,28.4516535 C14.2724409,24.1237795 16.8617323,20.615748 20.056063,20.615748 C23.2500787,20.615748 25.839685,24.1237795 25.839685,28.4516535" id="Fill-17" fill="#0A0B09"></path>
            <path d="M13.5455118,15.7773228 C13.1911811,18.1080315 11.696378,19.8135433 10.2059843,19.5870866 C8.71590551,19.3606299 7.79496063,17.287874 8.14897638,14.9574803 C8.50299213,12.6274016 9.99811024,10.9222047 11.488189,11.1483465 C12.9785827,11.3748031 13.8995276,13.4475591 13.5455118,15.7773228" id="Fill-18" fill="#0A0B09"></path>
            <path d="M26.8988976,15.7773228 C27.2532283,18.1080315 28.7480315,19.8135433 30.2384252,19.5870866 C31.7285039,19.3606299 32.6494488,17.287874 32.2954331,14.9574803 C31.9411024,12.6274016 30.4462992,10.9222047 28.9562205,11.1483465 C27.4658268,11.3748031 26.5445669,13.4475591 26.8988976,15.7773228" id="Fill-19" fill="#0A0B09"></path>
            <path d="M8.07307087,7.47433071 C7.85574803,7.47433071 7.6384252,7.39023622 7.47401575,7.22299213 C7.14929134,6.8919685 7.15433071,6.36031496 7.48503937,6.03590551 C10.7225197,2.85795276 13.3902362,4.45889764 14.1310236,5.02519685 C14.4992126,5.30677165 14.5697638,5.83370079 14.288189,6.20220472 C14.0062992,6.5703937 13.4793701,6.64094488 13.1111811,6.35937008 C12.3640945,5.7880315 10.7927559,5.14204724 8.66110236,7.23370079 C8.4976378,7.39464567 8.28535433,7.47433071 8.07307087,7.47433071" id="Fill-20" fill="#0A0B09"></path>
            <path d="M32.0913386,7.47433071 C32.3086614,7.47433071 32.5259843,7.39023622 32.6903937,7.22299213 C33.0151181,6.8919685 33.0103937,6.36031496 32.6793701,6.03590551 C29.4418898,2.85795276 26.7741732,4.45889764 26.0333858,5.02519685 C25.6651969,5.30677165 25.5946457,5.83370079 25.8762205,6.20220472 C26.1584252,6.5703937 26.6853543,6.64094488 27.0532283,6.35937008 C27.8006299,5.7880315 29.3716535,5.14204724 31.5033071,7.23370079 C31.6667717,7.39464567 31.8790551,7.47433071 32.0913386,7.47433071" id="Fill-21" fill="#0A0B09"></path>
        </g>
    </g>
</svg>