<?xml version="1.0" encoding="UTF-8"?>
<svg width="36px" height="32px" viewBox="0 0 36 32" version="1.1" xmlns="http://www.w3.org/2000/svg" xmlns:xlink="http://www.w3.org/1999/xlink">
    <!-- Generator: Sketch 63.1 (92452) - https://sketch.com -->
    <title>Artboard</title>
    <desc>Created with Sketch.</desc>
    <g id="Artboard" stroke="none" stroke-width="1" fill="none" fill-rule="evenodd">
        <path d="M32.394532,0 L3.60508,0 C1.61489398,0.00238117579 0.00218864674,1.60072434 0,3.57297448 L0,20.8742285 C0.00221986066,22.8464029 1.61497016,24.4446169 3.60508,24.4468146 L5.520312,24.4468146 L4.03828,30.6780383 C4.03164,30.7055243 4.026564,30.7337833 4.02228,30.7620383 C3.97691696,31.0719736 4.0692165,31.3861897 4.27535221,31.6235739 C4.48148791,31.8609582 4.78125832,31.9982469 5.09728,32 C5.36655981,31.9971928 5.62625744,31.9005814 5.83088,31.7270899 L14.075,24.4468146 L32.394532,24.4468146 C34.3847176,24.4446478 35.9975972,22.8464778 36,20.8742285 L36,3.57297448 C35.9976262,1.60065039 34.3847929,0.00235242135 32.394532,0 Z M34,20.6261153 C33.9988932,21.4919114 33.2806854,22.1934488 32.394532,22.1943188 L13.694132,22.1943188 C13.4487936,22.1943401 13.2120278,22.2824974 13.0289,22.4420109 L6.6461,28 L7.75664,23.3953787 C7.82662999,23.1048008 7.75684161,22.7989044 7.56716614,22.5648771 C7.37749067,22.3308497 7.0887346,22.194363 6.7832,22.1943188 L3.60508,22.1943188 C2.71900145,22.1934205 2.00092159,21.4918384 2,20.6261153 L2,3.56858643 C2.00089038,2.70278863 2.71892527,2.0010792 3.60508,2 L32.394532,2 C33.2807625,2.0010487 33.9989266,2.70271482 34,3.56858643 L34,20.6261153 Z" id="Shape" fill="#606770" fill-rule="nonzero"></path>
    </g>
</svg>